<?xml version="1.0" encoding="UTF-8"?>
<svg xmlns="http://www.w3.org/2000/svg"
     width="960" height="540"
     viewBox="0 0 960 540">
<rect width="100%" height="100%" fill="#fafafa"/>
<text x="480" y="28"
      text-anchor="middle" font-family="sans-serif" font-size="16">
TFIM single-site DMRG (8 sites, χ=3, J=1.0, h=0.7) — energy after each site update
</text>
<line x1="70" y1="470"
      x2="890" y2="70"
      stroke="#333" stroke-width="1.5"/>
<line x1="70" y1="470"
      x2="70" y2="70"
      stroke="#333" stroke-width="1.5"/>

<line x1="70" y1="470.0" x2="890" y2="470.0" stroke="#ddd" stroke-width="1"/>
<line x1="70" y1="390.0" x2="890" y2="390.0" stroke="#ddd" stroke-width="1"/>
<line x1="70" y1="310.0" x2="890" y2="310.0" stroke="#ddd" stroke-width="1"/>
<line x1="70" y1="230.0" x2="890" y2="230.0" stroke="#ddd" stroke-width="1"/>
<line x1="70" y1="150.0" x2="890" y2="150.0" stroke="#ddd" stroke-width="1"/>
<line x1="70" y1="70.0" x2="890" y2="70.0" stroke="#ddd" stroke-width="1"/>

<line x1="206.66666666666666" y1="70" x2="206.66666666666666" y2="470" stroke="#94a3b8" stroke-width="1" stroke-dasharray="4,4"/>
<line x1="343.3333333333333" y1="70" x2="343.3333333333333" y2="470" stroke="#94a3b8" stroke-width="1" stroke-dasharray="4,4"/>
<line x1="480.0" y1="70" x2="480.0" y2="470" stroke="#94a3b8" stroke-width="1" stroke-dasharray="4,4"/>
<line x1="616.6666666666666" y1="70" x2="616.6666666666666" y2="470" stroke="#94a3b8" stroke-width="1" stroke-dasharray="4,4"/>
<line x1="753.3333333333334" y1="70" x2="753.3333333333334" y2="470" stroke="#94a3b8" stroke-width="1" stroke-dasharray="4,4"/>
<line x1="890.0" y1="70" x2="890.0" y2="470" stroke="#94a3b8" stroke-width="1" stroke-dasharray="4,4"/>

<polyline fill="none" stroke="#2563eb" stroke-width="2"
          points="70.0,97.58620689655172 79.11111111111111,160.88448205385038 88.22222222222223,225.19772013672062 97.33333333333333,254.9900415478639 106.44444444444444,329.6142549797613 115.55555555555556,403.6485384636257 124.66666666666666,414.65453155356414 133.77777777777777,427.6855497344921 142.88888888888889,427.6855497344919 152.0,427.6855497344921 161.11111111111111,429.8829642721275 170.22222222222223,438.63062905586537 179.33333333333331,440.2321511305654 188.44444444444446,441.15836811983877 197.55555555555554,441.7471197637577 206.66666666666666,441.74711976375676 215.77777777777777,441.7471197637575 224.88888888888889,441.7471197637575 234.0,441.7682295750209 243.11111111111111,441.8324561788357 252.22222222222223,442.13065507341264 261.33333333333337,442.23217319933536 270.44444444444446,442.30876769131504 279.55555555555554,442.30876769131464 288.66666666666663,442.30876769131464 297.77777777777777,442.3098307096086 306.8888888888889,442.3122335547766 316.0,442.3138161462933 325.1111111111111,442.354070481309 334.22222222222223,442.3557047966603 343.3333333333333,442.3557047966594 352.44444444444446,442.3557047966594 361.55555555555554,442.35570479666 370.6666666666667,442.3564087021422 379.77777777777777,442.3835341181643 388.8888888888889,442.38449282484993 398.0,442.3847757104211 407.1111111111111,442.3854781527143 416.22222222222223,442.3854781527139 425.3333333333333,442.3854781527143 434.44444444444446,442.38598787513206 443.55555555555554,442.3863107439522 452.6666666666667,442.38741334831286 461.77777777777777,442.39712634175726 470.8888888888889,442.397807357741 480.0,442.3978073577407 489.1111111111111,442.397807357741 498.22222222222223,442.397807357741 507.3333333333333,442.3983248904388 516.4444444444445,442.40177997340743 525.5555555555555,442.4025753508042 534.6666666666667,442.4030292797702 543.7777777777778,442.4035444592703 552.8888888888889,442.4035444592707 562.0,442.40354445927045 571.1111111111111,442.40392970470157 580.2222222222222,442.40444074227076 589.3333333333334,442.4052748620032 598.4444444444445,442.4065115546865 607.5555555555555,442.4068782438663 616.6666666666666,442.4068782438665 625.7777777777778,442.4068782438669 634.8888888888889,442.4068782438663 644.0,442.4071387855137 653.1111111111111,442.40765911427064 662.2222222222222,442.4081947595867 671.3333333333334,442.40878949815004 680.4444444444445,442.4092159372485 689.5555555555555,442.4092159380064 698.6666666666666,442.4092159364877 707.7777777777778,442.4095361759676 716.8888888888889,442.4101306838315 726.0,442.41061752605816 735.1111111111111,442.41081691253453 744.2222222222222,442.4110246077856 753.3333333333334,442.4110246077861 762.4444444444445,442.4110246077851 771.5555555555555,442.411024607835 780.6666666666666,442.4111628011602 789.7777777777778,442.4112491232853 798.8888888888889,442.4115844930206 808.0,442.4121900702097 817.1111111111111,442.41255152242485 826.2222222222222,442.41255152242485 835.3333333333334,442.41255152242485 844.4444444444445,442.4128128260017 853.5555555555555,442.4133342214473 862.6666666666666,442.4136499206635 871.7777777777778,442.41359413320566 880.8888888888889,442.4137931028498 890.0,442.41379310344826"/>
<circle cx="70.0" cy="97.58620689655172" r="2.5" fill="#1d4ed8"/>
<circle cx="79.11111111111111" cy="160.88448205385038" r="2.5" fill="#1d4ed8"/>
<circle cx="88.22222222222223" cy="225.19772013672062" r="2.5" fill="#1d4ed8"/>
<circle cx="97.33333333333333" cy="254.9900415478639" r="2.5" fill="#1d4ed8"/>
<circle cx="106.44444444444444" cy="329.6142549797613" r="2.5" fill="#1d4ed8"/>
<circle cx="115.55555555555556" cy="403.6485384636257" r="2.5" fill="#1d4ed8"/>
<circle cx="124.66666666666666" cy="414.65453155356414" r="2.5" fill="#1d4ed8"/>
<circle cx="133.77777777777777" cy="427.6855497344921" r="2.5" fill="#1d4ed8"/>
<circle cx="142.88888888888889" cy="427.6855497344919" r="2.5" fill="#1d4ed8"/>
<circle cx="152.0" cy="427.6855497344921" r="2.5" fill="#1d4ed8"/>
<circle cx="161.11111111111111" cy="429.8829642721275" r="2.5" fill="#1d4ed8"/>
<circle cx="170.22222222222223" cy="438.63062905586537" r="2.5" fill="#1d4ed8"/>
<circle cx="179.33333333333331" cy="440.2321511305654" r="2.5" fill="#1d4ed8"/>
<circle cx="188.44444444444446" cy="441.15836811983877" r="2.5" fill="#1d4ed8"/>
<circle cx="197.55555555555554" cy="441.7471197637577" r="2.5" fill="#1d4ed8"/>
<circle cx="206.66666666666666" cy="441.74711976375676" r="2.5" fill="#1d4ed8"/>
<circle cx="215.77777777777777" cy="441.7471197637575" r="2.5" fill="#1d4ed8"/>
<circle cx="224.88888888888889" cy="441.7471197637575" r="2.5" fill="#1d4ed8"/>
<circle cx="234.0" cy="441.7682295750209" r="2.5" fill="#1d4ed8"/>
<circle cx="243.11111111111111" cy="441.8324561788357" r="2.5" fill="#1d4ed8"/>
<circle cx="252.22222222222223" cy="442.13065507341264" r="2.5" fill="#1d4ed8"/>
<circle cx="261.33333333333337" cy="442.23217319933536" r="2.5" fill="#1d4ed8"/>
<circle cx="270.44444444444446" cy="442.30876769131504" r="2.5" fill="#1d4ed8"/>
<circle cx="279.55555555555554" cy="442.30876769131464" r="2.5" fill="#1d4ed8"/>
<circle cx="288.66666666666663" cy="442.30876769131464" r="2.5" fill="#1d4ed8"/>
<circle cx="297.77777777777777" cy="442.3098307096086" r="2.5" fill="#1d4ed8"/>
<circle cx="306.8888888888889" cy="442.3122335547766" r="2.5" fill="#1d4ed8"/>
<circle cx="316.0" cy="442.3138161462933" r="2.5" fill="#1d4ed8"/>
<circle cx="325.1111111111111" cy="442.354070481309" r="2.5" fill="#1d4ed8"/>
<circle cx="334.22222222222223" cy="442.3557047966603" r="2.5" fill="#1d4ed8"/>
<circle cx="343.3333333333333" cy="442.3557047966594" r="2.5" fill="#1d4ed8"/>
<circle cx="352.44444444444446" cy="442.3557047966594" r="2.5" fill="#1d4ed8"/>
<circle cx="361.55555555555554" cy="442.35570479666" r="2.5" fill="#1d4ed8"/>
<circle cx="370.6666666666667" cy="442.3564087021422" r="2.5" fill="#1d4ed8"/>
<circle cx="379.77777777777777" cy="442.3835341181643" r="2.5" fill="#1d4ed8"/>
<circle cx="388.8888888888889" cy="442.38449282484993" r="2.5" fill="#1d4ed8"/>
<circle cx="398.0" cy="442.3847757104211" r="2.5" fill="#1d4ed8"/>
<circle cx="407.1111111111111" cy="442.3854781527143" r="2.5" fill="#1d4ed8"/>
<circle cx="416.22222222222223" cy="442.3854781527139" r="2.5" fill="#1d4ed8"/>
<circle cx="425.3333333333333" cy="442.3854781527143" r="2.5" fill="#1d4ed8"/>
<circle cx="434.44444444444446" cy="442.38598787513206" r="2.5" fill="#1d4ed8"/>
<circle cx="443.55555555555554" cy="442.3863107439522" r="2.5" fill="#1d4ed8"/>
<circle cx="452.6666666666667" cy="442.38741334831286" r="2.5" fill="#1d4ed8"/>
<circle cx="461.77777777777777" cy="442.39712634175726" r="2.5" fill="#1d4ed8"/>
<circle cx="470.8888888888889" cy="442.397807357741" r="2.5" fill="#1d4ed8"/>
<circle cx="480.0" cy="442.3978073577407" r="2.5" fill="#1d4ed8"/>
<circle cx="489.1111111111111" cy="442.397807357741" r="2.5" fill="#1d4ed8"/>
<circle cx="498.22222222222223" cy="442.397807357741" r="2.5" fill="#1d4ed8"/>
<circle cx="507.3333333333333" cy="442.3983248904388" r="2.5" fill="#1d4ed8"/>
<circle cx="516.4444444444445" cy="442.40177997340743" r="2.5" fill="#1d4ed8"/>
<circle cx="525.5555555555555" cy="442.4025753508042" r="2.5" fill="#1d4ed8"/>
<circle cx="534.6666666666667" cy="442.4030292797702" r="2.5" fill="#1d4ed8"/>
<circle cx="543.7777777777778" cy="442.4035444592703" r="2.5" fill="#1d4ed8"/>
<circle cx="552.8888888888889" cy="442.4035444592707" r="2.5" fill="#1d4ed8"/>
<circle cx="562.0" cy="442.40354445927045" r="2.5" fill="#1d4ed8"/>
<circle cx="571.1111111111111" cy="442.40392970470157" r="2.5" fill="#1d4ed8"/>
<circle cx="580.2222222222222" cy="442.40444074227076" r="2.5" fill="#1d4ed8"/>
<circle cx="589.3333333333334" cy="442.4052748620032" r="2.5" fill="#1d4ed8"/>
<circle cx="598.4444444444445" cy="442.4065115546865" r="2.5" fill="#1d4ed8"/>
<circle cx="607.5555555555555" cy="442.4068782438663" r="2.5" fill="#1d4ed8"/>
<circle cx="616.6666666666666" cy="442.4068782438665" r="2.5" fill="#1d4ed8"/>
<circle cx="625.7777777777778" cy="442.4068782438669" r="2.5" fill="#1d4ed8"/>
<circle cx="634.8888888888889" cy="442.4068782438663" r="2.5" fill="#1d4ed8"/>
<circle cx="644.0" cy="442.4071387855137" r="2.5" fill="#1d4ed8"/>
<circle cx="653.1111111111111" cy="442.40765911427064" r="2.5" fill="#1d4ed8"/>
<circle cx="662.2222222222222" cy="442.4081947595867" r="2.5" fill="#1d4ed8"/>
<circle cx="671.3333333333334" cy="442.40878949815004" r="2.5" fill="#1d4ed8"/>
<circle cx="680.4444444444445" cy="442.4092159372485" r="2.5" fill="#1d4ed8"/>
<circle cx="689.5555555555555" cy="442.4092159380064" r="2.5" fill="#1d4ed8"/>
<circle cx="698.6666666666666" cy="442.4092159364877" r="2.5" fill="#1d4ed8"/>
<circle cx="707.7777777777778" cy="442.4095361759676" r="2.5" fill="#1d4ed8"/>
<circle cx="716.8888888888889" cy="442.4101306838315" r="2.5" fill="#1d4ed8"/>
<circle cx="726.0" cy="442.41061752605816" r="2.5" fill="#1d4ed8"/>
<circle cx="735.1111111111111" cy="442.41081691253453" r="2.5" fill="#1d4ed8"/>
<circle cx="744.2222222222222" cy="442.4110246077856" r="2.5" fill="#1d4ed8"/>
<circle cx="753.3333333333334" cy="442.4110246077861" r="2.5" fill="#1d4ed8"/>
<circle cx="762.4444444444445" cy="442.4110246077851" r="2.5" fill="#1d4ed8"/>
<circle cx="771.5555555555555" cy="442.411024607835" r="2.5" fill="#1d4ed8"/>
<circle cx="780.6666666666666" cy="442.4111628011602" r="2.5" fill="#1d4ed8"/>
<circle cx="789.7777777777778" cy="442.4112491232853" r="2.5" fill="#1d4ed8"/>
<circle cx="798.8888888888889" cy="442.4115844930206" r="2.5" fill="#1d4ed8"/>
<circle cx="808.0" cy="442.4121900702097" r="2.5" fill="#1d4ed8"/>
<circle cx="817.1111111111111" cy="442.41255152242485" r="2.5" fill="#1d4ed8"/>
<circle cx="826.2222222222222" cy="442.41255152242485" r="2.5" fill="#1d4ed8"/>
<circle cx="835.3333333333334" cy="442.41255152242485" r="2.5" fill="#1d4ed8"/>
<circle cx="844.4444444444445" cy="442.4128128260017" r="2.5" fill="#1d4ed8"/>
<circle cx="853.5555555555555" cy="442.4133342214473" r="2.5" fill="#1d4ed8"/>
<circle cx="862.6666666666666" cy="442.4136499206635" r="2.5" fill="#1d4ed8"/>
<circle cx="871.7777777777778" cy="442.41359413320566" r="2.5" fill="#1d4ed8"/>
<circle cx="880.8888888888889" cy="442.4137931028498" r="2.5" fill="#1d4ed8"/>
<circle cx="890.0" cy="442.41379310344826" r="2.5" fill="#1d4ed8"/>

<text x="60" y="470.0" text-anchor="end" dominant-baseline="middle" font-family="sans-serif" font-size="12">-8.5182</text>
<text x="60" y="390.0" text-anchor="end" dominant-baseline="middle" font-family="sans-serif" font-size="12">-7.8913</text>
<text x="60" y="310.0" text-anchor="end" dominant-baseline="middle" font-family="sans-serif" font-size="12">-7.2645</text>
<text x="60" y="230.0" text-anchor="end" dominant-baseline="middle" font-family="sans-serif" font-size="12">-6.6376</text>
<text x="60" y="150.0" text-anchor="end" dominant-baseline="middle" font-family="sans-serif" font-size="12">-6.0107</text>
<text x="60" y="70.0" text-anchor="end" dominant-baseline="middle" font-family="sans-serif" font-size="12">-5.3838</text>

<text x="70.0" y="492" text-anchor="middle" font-family="sans-serif" font-size="12">0</text>
<text x="152.0" y="492" text-anchor="middle" font-family="sans-serif" font-size="12">9</text>
<text x="234.0" y="492" text-anchor="middle" font-family="sans-serif" font-size="12">18</text>
<text x="316.0" y="492" text-anchor="middle" font-family="sans-serif" font-size="12">27</text>
<text x="398.0" y="492" text-anchor="middle" font-family="sans-serif" font-size="12">36</text>
<text x="480.0" y="492" text-anchor="middle" font-family="sans-serif" font-size="12">45</text>
<text x="562.0" y="492" text-anchor="middle" font-family="sans-serif" font-size="12">54</text>
<text x="644.0" y="492" text-anchor="middle" font-family="sans-serif" font-size="12">63</text>
<text x="726.0" y="492" text-anchor="middle" font-family="sans-serif" font-size="12">72</text>
<text x="808.0" y="492" text-anchor="middle" font-family="sans-serif" font-size="12">81</text>
<text x="890.0" y="492" text-anchor="middle" font-family="sans-serif" font-size="12">90</text>

<text x="480" y="522"
      text-anchor="middle" font-family="sans-serif" font-size="14">
site update index (0 = initial; dashed = end of L→R+R→L sweep)
</text>
<text x="18" y="270"
      transform="rotate(-90 18 270)"
      text-anchor="middle" font-family="sans-serif" font-size="14">
Energy  ⟨ψ|H|ψ⟩ / ⟨ψ|ψ⟩
</text>
</svg>
